<svg xmlns="http://www.w3.org/2000/svg" viewBox="0 0 512 512"><rect width="512" height="512" rx="48" fill="#ffffff"/><rect x="56" y="56" width="120" height="120" rx="20" fill="#173b2d"/><rect x="336" y="56" width="120" height="120" rx="20" fill="#173b2d"/><rect x="56" y="336" width="120" height="120" rx="20" fill="#173b2d"/><rect x="218" y="84" width="28" height="28" fill="#173b2d"/><rect x="274" y="84" width="28" height="28" fill="#173b2d"/><rect x="218" y="140" width="28" height="28" fill="#173b2d"/><rect x="274" y="140" width="28" height="28" fill="#173b2d"/><rect x="218" y="218" width="28" height="28" fill="#173b2d"/><rect x="274" y="218" width="28" height="28" fill="#173b2d"/><rect x="330" y="218" width="28" height="28" fill="#173b2d"/><rect x="386" y="218" width="28" height="28" fill="#173b2d"/><rect x="218" y="274" width="28" height="28" fill="#173b2d"/><rect x="274" y="274" width="28" height="28" fill="#173b2d"/><rect x="330" y="274" width="28" height="28" fill="#173b2d"/><rect x="386" y="274" width="28" height="28" fill="#173b2d"/><rect x="218" y="330" width="28" height="28" fill="#173b2d"/><rect x="274" y="330" width="28" height="28" fill="#173b2d"/><rect x="330" y="330" width="28" height="28" fill="#173b2d"/><rect x="386" y="330" width="28" height="28" fill="#173b2d"/><rect x="218" y="386" width="28" height="28" fill="#173b2d"/><rect x="330" y="386" width="28" height="28" fill="#173b2d"/><rect x="386" y="386" width="28" height="28" fill="#173b2d"/></svg>
